<svg xmlns="http://www.w3.org/2000/svg" width="500" height="500"><path d="M492.857 250a242.857 242.857 0 11-485.714 0 242.857 242.857 0 11485.714 0z"/><path d="M250 70.949c-2.926 0-5.824.063-8.716.202l6.047 91.602a91.05 91.05 0 012.144-.023c48.676 0 88.139 38.844 88.139 86.754 0 13.59-3.17 26.46-8.83 37.91l81.476 42.2c11.908-23.978 18.618-51 18.618-79.594 0-98.89-80.086-179.051-178.878-179.051zm-13.758.516c-.16.012-.319.032-.48.045l.023.27.57-.315c-.037.003-.076-.003-.113 0zM92.524 164.997C78.869 190.287 71.122 219.234 71.122 250c0 98.89 80.086 179.051 178.878 179.051 5.01 0 9.97-.201 14.876-.606l-6.115-92.679c-3.051.314-6.15.471-9.286.471-48.675 0-88.138-38.844-88.138-86.753a85.32 85.32 0 0111.5-42.872l-80.313-41.615z" fill="#dedede"/></svg>